<?xml version="1.0" encoding="utf-8"?>
<!-- Generator: Adobe Illustrator 24.0.1, SVG Export Plug-In . SVG Version: 6.00 Build 0)  -->
<svg version="1.1" id="Camada_1" xmlns="http://www.w3.org/2000/svg" xmlns:xlink="http://www.w3.org/1999/xlink" x="0px" y="0px"
	 viewBox="0 0 1500 1500" style="enable-background:new 0 0 1500 1500;" xml:space="preserve">
<style type="text/css">
	.st0{fill:#F9F9F9;}
	.st1{fill:#DFDFDF;}
</style>
<rect class="st0" width="1500" height="1500"/>
<g>
	<g>
		<path class="st1" d="M893.3,1066.7h-320c-41.3,0-64,0-85.4-10.9c-18.9-9.6-34-24.8-43.7-43.7c-4.8-9.3-7.7-19.7-9.2-32.4
			c0-0.2-0.1-0.4-0.1-0.6c-1.6-13.7-1.6-30-1.6-52.3v-320c0-41.3,0-64,10.9-85.4c9.7-18.9,24.8-34.1,43.7-43.7
			c21.4-10.9,44.1-10.9,85.4-10.9h160c18.4,0,33.3,14.9,33.3,33.3s-14.9,33.3-33.3,33.3h-160c-28.9,0-48,0-55.1,3.6
			c-6.3,3.2-11.4,8.3-14.6,14.6c-3.6,7.1-3.6,26.2-3.6,55.1v289.3l77.7-78.3c0.1-0.1,0.1-0.1,0.2-0.2c29.1-28.9,45.1-44.7,67.8-52.1
			c20.1-6.5,41.4-6.5,61.5,0c22.7,7.3,38.7,23.2,67.8,52.1l33.8,33.5c22.5-22,37.3-34.7,57-41c20.5-6.5,42-6.2,62.4,0.7
			c13.9,4.7,25.2,12.7,38.4,24.9v-69c0-18.4,14.9-33.3,33.3-33.3s33.3,14.9,33.3,33.3v149.8c0,0.1,0,0.3,0,0.4v9.8
			c0,41.3,0,64-10.9,85.4c-9.6,18.9-24.8,34.1-43.7,43.7c-10.3,5.2-20.9,8-33.7,9.4c-0.6,0.1-1.1,0.1-1.7,0.2
			C929.9,1066.7,913.9,1066.7,893.3,1066.7z M505.5,985c3.2,4.8,7.5,8.7,12.7,11.4c7.1,3.6,26.2,3.6,55.1,3.6h289.1l-77.2-78.6
			l-57.1-56.6c-20.4-20.2-33.8-33.5-41.4-36c-6.7-2.2-13.8-2.2-20.5,0c-7.6,2.4-21,15.7-41.3,35.9L505.5,985z M855.9,898.2
			l95.1,96.7c5.2-3.2,9.3-7.7,12.1-13.2c3.5-6.8,3.6-24.6,3.6-51.5l-18.3-18.6c-0.1-0.1-0.2-0.2-0.3-0.3
			c-20.3-21.1-33.8-35.1-41.4-37.7c-6.8-2.3-14-2.4-20.8-0.2C879.9,875.5,870,884.4,855.9,898.2z M1033.3,666.7
			c-8.5,0-17.1-3.3-23.6-9.8L950,597.1l-59.8,59.8c-13,13-34.1,13-47.1,0c-13-13-13-34.1,0-47.1l59.8-59.8l-59.8-59.8
			c-13-13-13-34.1,0-47.1c13-13,34.1-13,47.1,0l59.8,59.8l59.8-59.8c13-13,34.1-13,47.1,0s13,34.1,0,47.1L997.1,550l59.8,59.8
			c13,13,13,34.1,0,47.1C1050.4,663.4,1041.9,666.7,1033.3,666.7z"/>
	</g>
</g>
</svg>
